<?xml version="1.0" encoding="utf-8"?>
<!-- Generator: Adobe Illustrator 23.0.3, SVG Export Plug-In . SVG Version: 6.00 Build 0)  -->
<svg version="1.1" id="Capa_1" xmlns="http://www.w3.org/2000/svg" xmlns:xlink="http://www.w3.org/1999/xlink" x="0px" y="0px"
	 viewBox="0 0 206 205.9" style="enable-background:new 0 0 206 205.9;" xml:space="preserve">
<style type="text/css">
	.st0{fill:url(#SVGID_1_);}
	.st1{fill:url(#SVGID_2_);}
</style>
<g>
	<g>
		<g>
			
				<linearGradient id="SVGID_1_" gradientUnits="userSpaceOnUse" x1="76.7025" y1="142.7399" x2="137.3169" y2="57.7843" gradientTransform="matrix(1 0 0 -1 0 208.7933)">
				<stop  offset="0" style="stop-color:#04FFFF"/>
				<stop  offset="1" style="stop-color:#8000FF"/>
			</linearGradient>
			<path class="st0" d="M125.3,98.8c-1.4-2.1-3.7-3.3-6.2-3.3h-21L110,65.7c1.5-3.8-0.3-8.2-4.2-9.7c-3.8-1.5-8.2,0.3-9.7,4.2
				l-16,40.1c-0.9,2.3-0.6,4.9,0.8,7s3.7,3.3,6.2,3.3h21l-11.9,29.8c-1.5,3.8,0.3,8.2,4.2,9.7c0.9,0.4,1.9,0.5,2.8,0.5
				c3,0,5.8-1.8,7-4.7l16-40.1C126.9,103.4,126.7,100.8,125.3,98.8z"/>
		</g>
	</g>
	<g>
		
			<linearGradient id="SVGID_2_" gradientUnits="userSpaceOnUse" x1="76.6268" y1="142.6859" x2="137.2412" y2="57.7303" gradientTransform="matrix(1 0 0 -1 0 208.7933)">
			<stop  offset="0" style="stop-color:#04FFFF"/>
			<stop  offset="1" style="stop-color:#8000FF"/>
		</linearGradient>
		<path class="st1" d="M53.8,196.8L69,181.6L86.4,199c9.2,9.2,24.1,9.2,33.3,0l79.4-79.4c9.2-9.2,9.2-24.1,0-33.3L181.6,69
			l17.7-17.7c2.9-2.9,2.9-7.7,0-10.6l0,0c-2.9-2.9-7.7-2.9-10.6,0L171,58.4l-23.4-23.5l15.2-15.2c2.9-2.9,2.9-7.7,0-10.6l0,0
			c-2.9-2.9-7.7-2.9-10.6,0L137,24.3L119.6,6.9c-9.2-9.2-24.1-9.2-33.3,0L6.9,86.3c-9.2,9.2-9.2,24.1,0,33.3L24.3,137L6.6,154.7
			c-2.9,2.9-2.9,7.7,0,10.6l0,0c2.9,2.9,7.7,2.9,10.6,0l17.7-17.7L58.3,171l-15.2,15.2c-2.9,2.9-2.9,7.7,0,10.6l0,0
			C46.1,199.7,50.9,199.7,53.8,196.8z M188.4,96.9c3.3,3.3,3.3,8.7,0,12.1l-79.3,79.4c-3.3,3.3-8.7,3.3-12.1,0L17.6,109
			c-3.3-3.3-3.3-8.7,0-12.1L97,17.5c3.3-3.3,8.7-3.3,12.1,0L188.4,96.9z"/>
	</g>
</g>
</svg>